PathFileType	4	(X/Y/Z)	S1_rest_slow_left.trc
DataRate	CameraRate	NumFrames	NumMarkers	Units	OrigDataRate	OrigDataStartFrame	OrigNumFrames
250.00	250.00	19	18	mm	250.00	1	36183
Frame#	Time	c7	r_should	l_should	clavicle	r_upa	r_elb_l	r_elb_m	r_low	r_wri_l	r_wri_m	r_met	l_upa	l_elb_l	l_elb_m	l_low	l_wri_l	l_wri_m	l_met
	X1	Y1	Z1	X2	Y2	Z2	X3	Y3	Z3	X4	Y4	Z4	X5	Y5	Z5	X6	Y6	Z6	X7	Y7	Z7	X8	Y8	Z8	X9	Y9	Z9	X10	Y10	Z10	X11	Y11	Z11	X12	Y12	Z12	X13	Y13	Z13	X14	Y14	Z14	X15	Y15	Z15	X16	Y16	Z16	X17	Y17	Z17	X18	Y18	Z18
1	0.00000	1005.84674	1420.38794	155.03664	1059.97949	1363.46680	322.34076	1037.90356	1351.56165	-17.55542	1126.87341	1287.02454	151.82713	1060.20129	1158.90466	401.71967	1053.83069	1075.96045	430.79660	983.72192	1043.88611	380.03748	1093.84900	953.11005	430.00357	1135.70825	837.08911	425.09396	1059.03943	822.82269	421.51581	1132.61340	763.15436	459.52878	1021.82544	1130.97888	-53.72586	1012.97021	1025.41406	-72.01977	1025.22314	1017.29370	28.82615	1027.92322	903.30634	-76.37701	1047.66309	790.56073	-84.50707	1059.63416	780.88440	-5.80820	1017.65228	708.90015	-66.07096
2	0.00400	1005.85376	1420.38367	155.03343	1059.99915	1363.48608	322.32846	1037.88232	1351.54163	-17.57114	1126.85583	1287.01782	151.81482	1060.17261	1158.94189	401.73575	1053.79346	1076.00159	430.82166	983.67822	1043.92834	380.07635	1093.79907	953.14819	430.05927	1135.65662	837.11511	425.16653	1058.98450	822.86682	421.59656	1132.54285	763.19482	459.61453	1021.78857	1130.96387	-53.72176	1012.93182	1025.41138	-72.00380	1025.17773	1017.29297	28.84360	1027.92615	903.30139	-76.35711	1047.69849	790.54749	-84.46343	1059.63306	780.88354	-5.76089	1017.70795	708.87305	-66.05176
3	0.00800	1005.86298	1420.37732	155.02676	1060.01831	1363.50842	322.31067	1037.85535	1351.52222	-17.57888	1126.84143	1287.00842	151.80690	1060.15234	1158.98389	401.76511	1053.76318	1076.03381	430.85333	983.64490	1043.97583	380.10715	1093.75623	953.18048	430.11627	1135.60193	837.13422	425.24191	1058.93225	822.89703	421.66849	1132.47400	763.23450	459.70554	1021.75342	1130.94458	-53.70823	1012.91003	1025.39465	-71.97626	1025.15076	1017.29724	28.86930	1027.92859	903.28778	-76.33422	1047.73657	790.53442	-84.41128	1059.64233	780.87500	-5.72192	1017.76410	708.85065	-66.03970
4	0.01200	1005.87653	1420.37659	155.01901	1060.03992	1363.52600	322.29590	1037.82812	1351.50439	-17.58304	1126.82642	1286.99829	151.79411	1060.13513	1159.01733	401.78348	1053.73792	1076.06616	430.89386	983.62708	1044.01807	380.13599	1093.71497	953.21967	430.17346	1135.54712	837.15167	425.31598	1058.88330	822.93274	421.75107	1132.40332	763.26752	459.79657	1021.72766	1130.92139	-53.69660	1012.89270	1025.37195	-71.95132	1025.12122	1017.29694	28.90217	1027.93982	903.27124	-76.29645	1047.78528	790.52783	-84.37124	1059.64575	780.85175	-5.67762	1017.82141	708.82422	-66.02946
5	0.01600	1005.89014	1420.37769	155.00883	1060.06079	1363.54468	322.29327	1037.80103	1351.48303	-17.58981	1126.81152	1286.98560	151.78394	1060.12085	1159.04175	401.80270	1053.71741	1076.10657	430.93973	983.61456	1044.05334	380.17117	1093.68640	953.26117	430.23093	1135.49182	837.17438	425.39746	1058.83582	822.97137	421.83704	1132.33179	763.29730	459.88605	1021.70813	1130.89746	-53.67427	1012.87915	1025.34375	-71.91405	1025.09082	1017.28180	28.94275	1027.95691	903.26001	-76.24955	1047.84363	790.52368	-84.33079	1059.65918	780.83667	-5.63379	1017.88416	708.79401	-66.01582
6	0.02000	1005.89874	1420.38501	155.00294	1060.08569	1363.56287	322.28796	1037.77588	1351.45874	-17.59036	1126.79810	1286.97144	151.77464	1060.10828	1159.06775	401.82431	1053.70630	1076.14258	430.97284	983.60059	1044.08350	380.20599	1093.65601	953.28363	430.28085	1135.44153	837.20038	425.46851	1058.79370	823.00378	421.91245	1132.27112	763.31726	459.97321	1021.68774	1130.87695	-53.65641	1012.87054	1025.31848	-71.87383	1025.06030	1017.26245	28.98729	1027.97437	903.24164	-76.21320	1047.89612	790.51300	-84.28537	1059.67517	780.81500	-5.58506	1017.95074	708.77478	-66.00402
7	0.02400	1005.90656	1420.39587	154.99553	1060.11230	1363.57837	322.27643	1037.75012	1351.43591	-17.59195	1126.78198	1286.95679	151.76042	1060.10095	1159.09131	401.83966	1053.69446	1076.17163	431.00589	983.59045	1044.11511	380.23990	1093.62573	953.30078	430.31921	1135.39172	837.21545	425.53745	1058.74780	823.03583	421.98776	1132.21423	763.33282	460.06094	1021.67310	1130.85229	-53.63450	1012.86365	1025.29492	-71.84034	1025.03601	1017.24506	29.02871	1027.98792	903.21863	-76.16792	1047.95959	790.50037	-84.23184	1059.70264	780.80511	-5.53705	1018.02704	708.74622	-65.98918
8	0.02800	1005.91388	1420.40015	154.98566	1060.13062	1363.59094	322.26993	1037.71960	1351.41418	-17.59491	1126.76550	1286.93994	151.74812	1060.09937	1159.12073	401.85831	1053.68579	1076.20569	431.04596	983.58203	1044.14526	380.27930	1093.60364	953.32104	430.37018	1135.33972	837.22095	425.60791	1058.69727	823.05786	422.06705	1132.15979	763.34717	460.14514	1021.65863	1130.82300	-53.61073	1012.87543	1025.26013	-71.79984	1025.02869	1017.22729	29.06291	1028.00781	903.19714	-76.12650	1048.02771	790.48627	-84.17735	1059.72424	780.78558	-5.48935	1018.09845	708.71539	-65.97726
9	0.03200	1005.92090	1420.40564	154.97691	1060.14429	1363.60388	322.25751	1037.68591	1351.39307	-17.60279	1126.74707	1286.92273	151.73808	1060.10229	1159.14197	401.87634	1053.68042	1076.24316	431.08118	983.57434	1044.17371	380.32294	1093.57996	953.34137	430.41122	1135.29431	837.22559	425.66388	1058.64856	823.08185	422.14307	1132.10364	763.36108	460.22995	1021.64124	1130.78992	-53.58591	1012.87292	1025.23450	-71.76502	1025.01941	1017.20264	29.10539	1028.02734	903.17023	-76.09397	1048.09290	790.46808	-84.12125	1059.75061	780.75739	-5.42568	1018.15997	708.68665	-65.97460
10	0.03600	1005.92578	1420.40881	154.96815	1060.15906	1363.61121	322.24387	1037.64856	1351.36890	-17.61151	1126.72864	1286.91089	151.72260	1060.10413	1159.16528	401.89923	1053.67627	1076.26758	431.10800	983.56830	1044.20190	380.36664	1093.55896	953.36285	430.45001	1135.25110	837.23309	425.72339	1058.59937	823.10864	422.22531	1132.05432	763.37482	460.30823	1021.62360	1130.75903	-53.55984	1012.87781	1025.20886	-71.73840	1025.01270	1017.18439	29.14422	1028.05396	903.13782	-76.05370	1048.15674	790.44482	-84.07177	1059.78503	780.73260	-5.36208	1018.22552	708.65259	-65.96178
11	0.04000	1005.92932	1420.40845	154.95741	1060.17151	1363.61792	322.23581	1037.60669	1351.34741	-17.61438	1126.71240	1286.90039	151.71959	1060.10779	1159.19458	401.92374	1053.66797	1076.28918	431.14548	983.56140	1044.23218	380.40887	1093.53174	953.38025	430.49759	1135.20483	837.24390	425.79083	1058.54150	823.12811	422.30164	1132.00269	763.39148	460.38779	1021.60394	1130.72827	-53.53260	1012.88843	1025.18103	-71.70303	1025.01929	1017.16876	29.17723	1028.07422	903.10449	-76.01197	1048.22253	790.42932	-84.02016	1059.82593	780.71643	-5.30244	1018.29266	708.61969	-65.95352
12	0.04400	1005.92877	1420.40601	154.94789	1060.17786	1363.62793	322.22885	1037.56384	1351.32715	-17.61586	1126.69202	1286.89124	151.71439	1060.10815	1159.22546	401.95428	1053.66211	1076.30664	431.18985	983.55164	1044.26257	380.45184	1093.50183	953.38953	430.55405	1135.15942	837.25305	425.85501	1058.48840	823.14948	422.38602	1131.93872	763.41296	460.47311	1021.58667	1130.69507	-53.50492	1012.88818	1025.15515	-71.66775	1025.01868	1017.15424	29.21347	1028.09973	903.07233	-75.96838	1048.29272	790.41339	-83.97099	1059.86597	780.70197	-5.24707	1018.36334	708.58997	-65.94858
13	0.04800	1005.92566	1420.40393	154.94315	1060.18311	1363.63477	322.23227	1037.52197	1351.31079	-17.61604	1126.66406	1286.88196	151.70891	1060.10132	1159.25122	401.99191	1053.65076	1076.32959	431.23334	983.53882	1044.28772	380.49664	1093.47742	953.39996	430.60596	1135.10559	837.25562	425.91833	1058.42920	823.15912	422.46802	1131.87073	763.42963	460.55533	1021.57043	1130.66772	-53.47681	1012.88531	1025.12769	-71.63318	1025.00635	1017.13348	29.25515	1028.12964	903.04694	-75.92528	1048.36707	790.39825	-83.91853	1059.90808	780.68463	-5.18675	1019.09314	708.44794	-65.81915
14	0.05200	1005.92163	1420.40588	154.94257	1060.19043	1363.64441	322.23563	1037.47925	1351.29688	-17.61363	1126.63477	1286.86951	151.70825	1060.09277	1159.27185	402.02707	1053.64185	1076.35327	431.28400	983.52460	1044.31287	380.53665	1093.44543	953.41608	430.65421	1135.04663	837.24536	425.98685	1058.37134	823.16803	422.54129	1131.80518	763.43799	460.63644	1021.55676	1130.64600	-53.45583	1012.88782	1025.10327	-71.60207	1024.98914	1017.11658	29.29385	1028.16260	903.02393	-75.87537	1048.44727	790.38947	-83.86568	1059.95178	780.65991	-5.12626	1020.64893	708.18243	-65.54469
15	0.05600	1005.91943	1420.40686	154.94891	1060.19739	1363.65430	322.23575	1037.43481	1351.28564	-17.61476	1126.60620	1286.85693	151.70244	1060.08740	1159.29797	402.05344	1053.63599	1076.37207	431.31631	983.51202	1044.33948	380.56961	1093.42090	953.42407	430.71100	1134.99475	837.24481	426.04883	1058.31482	823.17932	422.60913	1131.73938	763.44281	460.71121	1021.54443	1130.62988	-53.43908	1012.89246	1025.08130	-71.57038	1024.98572	1017.10248	29.33600	1028.20251	903.00952	-75.82839	1048.52869	790.37964	-83.81297	1060.01013	780.64240	-5.07004	1021.11542	708.10736	-65.47062
16	0.06000	1005.91919	1420.40930	154.95398	1060.20728	1363.66345	322.23523	1037.39355	1351.28027	-17.61595	1126.57922	1286.84912	151.69853	1060.08752	1159.31604	402.08221	1053.63245	1076.38684	431.34552	983.49939	1044.36743	380.60617	1093.39331	953.43158	430.75430	1134.95129	837.25458	426.10712	1058.26587	823.19769	422.68381	1131.68054	763.45520	460.78122	1021.53552	1130.61523	-53.41522	1012.90729	1025.06079	-71.53351	1024.98584	1017.09808	29.37284	1028.24939	902.99554	-75.77086	1048.61450	790.37708	-83.76447	1060.06628	780.62744	-5.01733	1021.30890	708.08289	-65.44157
17	0.06400	1005.91669	1420.41528	154.95857	1060.22510	1363.67371	322.23383	1037.35217	1351.27979	-17.61501	1126.55090	1286.83728	151.69284	1060.09631	1159.33447	402.10568	1053.63892	1076.40332	431.39014	983.49225	1044.39087	380.65152	1093.37036	953.44922	430.79590	1134.90991	837.25745	426.16794	1058.21436	823.21753	422.75983	1131.63562	763.46686	460.84964	1021.52875	1130.59998	-53.39032	1012.93146	1025.04443	-71.49840	1024.98486	1017.09094	29.41443	1028.30420	902.98187	-75.72294	1048.69934	790.37628	-83.71059	1060.12537	780.61053	-4.94182	1021.43384	708.07520	-65.41742
18	0.06800	1005.91388	1420.42517	154.96484	1060.23767	1363.68237	322.23630	1037.30896	1351.27246	-17.60616	1126.52783	1286.82349	151.69585	1060.10547	1159.34949	402.12140	1053.65247	1076.42029	431.42734	983.48566	1044.41272	380.69977	1093.35327	953.45880	430.83890	1134.86670	837.25836	426.22772	1058.15967	823.24298	422.83286	1131.59326	763.47314	460.92288	1021.52350	1130.57983	-53.35874	1012.96149	1025.02405	-71.46169	1024.98853	1017.07837	29.45675	1028.36035	902.96429	-75.66680	1048.79211	790.37347	-83.64858	1060.20068	780.60449	-4.86238	1021.54340	708.07684	-65.38940
19	0.07200	1005.91150	1420.43982	154.97034	1060.25269	1363.68799	322.23724	1037.26697	1351.26233	-17.60104	1126.50354	1286.80981	151.69629	1060.11560	1159.35779	402.14838	1053.65466	1076.43396	431.44684	983.46985	1044.43604	380.74814	1093.32910	953.45428	430.88342	1134.82654	837.25903	426.27591	1058.10950	823.26483	422.89218	1131.55347	763.47742	460.98611	1021.51477	1130.56177	-53.32470	1012.98785	1024.99951	-71.41409	1025.00378	1017.07269	29.50251	1028.41895	902.94836	-75.60645	1048.89050	790.36713	-83.58431	1060.26160	780.59637	-4.80137	1021.64972	708.08234	-65.36202
